<svg xmlns="http://www.w3.org/2000/svg" id="Layer_1" width="515" height="478" viewBox="0 0 2472 2292"><defs><linearGradient id="linear-gradient" x1="1165.79" x2="2003.09" y1="627.68" y2="1745.5" gradientTransform="matrix(1 0 0 -1 0 2293.02)" gradientUnits="userSpaceOnUse"><stop offset="0" stop-color="#eb5c2e"/><stop offset="1" stop-color="#f69d2b"/></linearGradient><linearGradient id="linear-gradient1" x1="645.75" x2="1115.67" y1="882.23" y2="1482.17" gradientTransform="matrix(1 0 0 -1 0 2293.02)" gradientUnits="userSpaceOnUse"><stop offset="0" stop-color="#ed5830"/><stop offset="1" stop-color="#f27f2b"/></linearGradient><style>.st2{fill:#0666bc}.st5{fill:#f4902a}.st6{fill:#f4721f}</style></defs><path d="M1257.22 869.71c12.25-8.59 33.87-19.84 47.58-27.52l70.15-40 225.25-129.05 199.37-114.25c41.9-24.26 80.6-48.63 124.26-70.23 11.66 3.78 24.35 46.2 25.15 58.15 5.69 82.17 1.95 165.61 2.64 247.98.32 38.9-20.28 117.96-46.14 148.48-6.21 10.82-14.39 17.31-21.39 26.29-2.66 2.6-5.86 5.56-8.37 8.21 29.4 19.04 47.98 36.09 60.72 68.04 2.87 7.19 9.17 23.02 9.4 30.38 10.42 26.87 8.63 139.77 1.2 169.96-3.59 19.49-19.97 76.82-33.07 91.14-25.01 46.54-63.97 62.84-108.92 89.04-7.48 4.36-32 20.31-39.02 22.78-4.4 2.79-26.29 16.47-30.29 17.3-12.07 7.72-29.18 17.08-42.06 24.19-27.83 17.8-64.51 36.1-94.22 53.51-29.72 17.55-59.56 34.9-89.51 52.06-12.16 6.97-32.67 19.43-44.81 25.22-17.85 11.37-45.4 26.35-64.62 37.02-4.19 3.34-28.79 17.99-32.75 19.98-15.2 7.62-101.47 62.72-110.67 60.4-1.46-8.62-.55-43.64-.52-54.11l.38-114.9.28-184.72c-.27-52.53-1.35-106.29-.13-158.71 13.69-12.74 70.85-44.76 90.38-56.18l238.92-138.44c47.65-27.07 107.82-58.49 150.76-90.07 57.62-42.37 70.09-126.28 67.07-189.57-.32-6.68.99-18.97-2.2-25.02-7.93-1.88-67.81 37.56-80.37 43.82l-1.72.84c-4.95 3.84-10.25 6.89-15.63 10.19-38.05 23.36-78.13 43.69-116.68 66.31-4.69 2.75-11.04 6.95-15.99 8.74-8.38 6.08-130.75 76.04-135.16 77.12-6.33 4.44-35.15 22.24-41.91 25.09-3.28 2.2-40.11 23.95-42.35 24.06-6.68 4.71-47.09 29.54-53.93 31.84-5.77 4.87-33.14 20.48-40.16 18.45-1.91-10.57-1.59-43.62-1.58-55.37.02-35.61-.55-72.89.66-108.46m179.32 415-1.88 1.38c-6.92 4.98-30.46 15.69-29.89 22.29 1.85 21.21-3.04 169.14 2.01 176.72 14.12-2.31 96.68-53.93 116.67-64.35 5.61-4.45 30.17-18.69 36.84-21.4 2.43-3.11 32.21-19.35 37.31-22.22l108.43-62.25c21.66-12.42 46.79-24.48 66.03-39.97 8.41-6.77 16.12-15.9 21-25.18 4.62-8.76 6.99-19.36 8.45-28.97 2.91-19.11 6.23-83.42-.84-100.34-3.67-8.79-11.83-19.09-21.59-22.63-5.66-2.05-11.79-1.66-17.42.24-9.06 3.06-17.01 8.95-24.97 13.88-16.55 10.27-41.25 26.97-58.8 33.81-.4.15-.81.27-1.22.41-3.73 3.03-26.15 15.28-31.59 18.35l-67.51 38.25c-46.74 26.38-93.35 56.01-141.03 81.98" style="fill:url(#linear-gradient)"/><path d="M1766.03 1449.1c-1.6-.06-3.39-.24-5-.37l2.11.54-1.16-2.74c1.05-.58 3.22-1.21 4.47-1.63 3.26-9.24 19.39-13.37 26.36-20.03 2.12-4.76 23.7-10.72 25.16-13.21 3.6-8.56 10.3-6.67 16.93-10.45 28.49-16.29 54.48-35.99 72.46-62.58 1.69-2.5 1.57-3.06 4.15-5.04l1.94.99.52 2.7c-25.01 46.54-63.97 62.84-108.92 89.04-7.48 4.36-32 20.31-39.02 22.78" class="st6"/><path d="M1571.65 856.97c-4.66 0-5.48.66-8.09-1.57 1.29-3.09 141.75-82.55 156.9-89.67l1.12.79-1.63 5.21c-4.95 3.84-10.25 6.89-15.63 10.19-38.05 23.36-78.13 43.69-116.68 66.31-4.69 2.75-11.04 6.95-15.99 8.74m374.19 219.21c10.42 26.87 8.63 139.77 1.2 169.96-1.66-13.34-.49-56.57 1.48-71.58 3.46-26.33-2.05-50.21-2.68-76.53-.18-7.71-2.04-14.46 0-21.85" class="st5"/><path d="m1400.52 1658.4-1.43-1.89c2.19-6.28 49.79-33.2 59.4-38.57 3.6-.09 3.01.51 6.65 3.44-17.85 11.37-45.4 26.35-64.62 37.02m-5.94-699.22c-5.47-9.24.27-1.5-7.11-3.61l.81-1.68c15.23-5.42 33.3-24.88 46.67-22.95l1.54 3.14c-6.33 4.44-35.15 22.24-41.91 25.09m299.1 531.42-2.33-.42-.4-1.12c2.61-2.2 5.08-4.49 7.59-6.78-3.86 1.92-3.8 2.65-7.55 2.49 4.88-7.4 26.37-17.72 35.86-19.24 1.34-.22 2.66-.05 4.67-.56l1.8-.47 2.42 1.91c-12.07 7.72-29.18 17.08-42.06 24.19m-395.38-475.5-5.39-.6c4.26-6.92 44.55-27.42 55.02-33.36 1.35-.76 3.2 1.29 4.3 2.11-6.68 4.71-47.09 29.54-53.93 31.84" class="st6"/><path d="M1884.09 969.56c-2.67-.83-2.55-.85-4.8-2.47-1.19-6.35 11.07-15.99 16.76-16.54.47-1.75 7.15-9.75 8.69-10.52l.74 3.24c-6.21 10.82-14.39 17.31-21.39 26.29" class="st5"/><path d="M1583.1 1194.98c1.63-1.77 7.17-7.3 8.84-8.04 23.7-10.54 58.3-37.32 82.7-42.53l2.03 1.71c-3.73 3.03-26.15 15.28-31.59 18.35l-67.51 38.25c-46.74 26.38-93.35 56.01-141.03 81.98.08-5.21-.71-2.84 2.83-7.25-1.96-.96-1.13-.39-2.56-1.63l103.8-58.33c14.48-8.04 26.69-18.37 42.49-22.51m-59.65 225.76c5.61-4.45 30.17-18.69 36.84-21.4l.25 1.71c-6.68 6.29-27.29 24.54-37.09 19.69" class="st6"/><path d="M542.49 487.3c5.53 1.57 20.26 9.6 26.14 12.64 43.76 22.59 84.79 48.92 127.57 73.53a31100 31100 0 0 1 333.98 190.66l118.65 68.09c18.3 10.43 48 25.64 63.98 37.34 1.86 53.59 1.39 107.65 1.16 161.29-.01 2.18.33 1.35-1.4 2.85-16.09-3.3-67.59-35.97-83.09-45.11l-87.28-50.91-232.97-131.89c-48.43-27.6-95.61-56.58-144.8-83.57l-.29 2.98c-1.82 17.81-.39 44.52-.29 63.04l.06 110.72-.07 214.53c-.05 34.43-1.2 69.31.54 103.67 2.32 45.86 32.04 59.19 68.95 79.63q30.795 16.95 61.38 34.26l271.14 155.86.03-181.12c-12.26-10.47-43.7-26.9-59.16-35.21-6.59-4.97-34.04-18.65-42.91-24.09-38.54-23.63-79.55-44.92-117.91-68.65-.44-19.48-2.55-152.54 1.32-162.8 11.9 5.22 30.23 16.26 41.86 22.92l70.39 40.29c62 34.6 123.63 69.86 184.88 105.78 18.97 10.98 44.16 24.39 62.03 37.07 3.29 2.34 5.77 8.67 6.06 12.76 1.94 26.98 1.56 54.83 1.57 81.83.12 46.58-.09 93.17-.63 139.74-.51 95.03-.27 190.06.72 285.08-24.34-11.53-57.41-32.27-81.08-45.92L971.64 1601l-301.71-174.04c-19.36-11.32-39.15-22.2-58.46-33.38-96.27-55.75-93.58-170.62-92.67-263.23.16-16.55 0-33.18 0-49.74l-.12-244.4-.62-188.64c0-28.44-.1-56.82.61-85.27.73-29.41 6.3-50.34 23.82-75.01" style="fill:url(#linear-gradient1)"/><path d="M876.25 261.03c3.94-3.8 45.34-26.29 53.74-31.18a14155 14155 0 0 1 181.33-103.34c30.28-17.15 60.51-34.86 90.87-51.82 6.09-3.4 23.78-11.5 30.36-11.5 10.09 0 33.8 11.26 42.75 16.01 36.07 19.13 71.77 39.83 107.05 60.12l158.05 90.71c24.38 13.99 49.7 27.14 74.15 41.08l211.26 122.45c23.21 13.67 47.77 26.55 70.48 40.72 5.24 2.71 12.25 5.55 15.45 10.04l-.49 1.88-1.88.71c-3.71 1.42-8.23 4.92-11.63 4.94-12.46 8.83-23.89 13.9-44.65 25.86-10.35 5.56-84.9 50.79-88.63 48.9-39.24-19.86-206-117.99-235.29-134.86L1339.22 283.2c-29.82-17.1-71.17-44.68-103.11-56.15-2.59-.93-10.8 3.45-13.46 4.91-7.19 3.63-30.34 16.46-36.99 21.03-32.57 17.55-65.84 38.87-98.56 56.65-11.14 6.06-24.67 14.89-35.62 20.3-15.66 8.81-35.04 21.13-50.64 28.96-2.69 2.49-47.23 28.5-51.84 30.19-36.34 22.47-78.34 44.6-115.37 66.69-8.83 5.27-51.08 30.51-58.51 33.23-4.9 4.89-60.55 35.41-68.69 38.06-6.6-.58-129.45-72.6-147.46-81.9l-.18-1.3c15.73-11.48 47.21-28.72 65.14-39.1 46.53-26.93 93.95-52.63 140.23-80.07 35.83-19.59 76.54-46.08 112.11-63.67" class="st5"/><path d="m775.1 489-2.31-1.5c2.91-3.59 7.53-4.33 11.38-6.79 5.11-3.27 10.6-7.46 16.14-9.99 2.6-1.19-.2.3 2.97-1.49l-1.27-1.11c-3.11 1.37-5.72 3.02-8.98 2.63l-.16-1.7c27.96-13.35 58.14-30.6 83.65-47.51 10.81-7.17 26.16-13.73 37.09-20.77 8.53-5.49 18.42-13.38 26.98-19.51l2.88 3.2c-1.82 4-8.7 2.75-12.58 8.37l.87.69c2.02-2.23 1.65-2.23 4.77-3.05 7.96-2.1 4.44-3.55 12.44-1.38-36.34 22.47-78.34 44.6-115.37 66.69-8.83 5.27-51.08 30.51-58.51 33.23m101.16-227.98.9 2.27c-3.68 3.95-8.85 5.15-10.85 9.09l.4 1.36c-2.25 2.48-7.39 9.51-10.69 8.93-16.84-2.98-16.41 4.04-26.74 12l-4.34-.84c-10.81 6.99-22.28 12.84-33.66 18.98-5.68 3.07-4.76 6.5-7.02 7.11-6.54 1.76-13.39 5.24-20.1 4.76 35.83-19.59 76.54-46.08 112.11-63.67" class="st6"/><path d="M1896.28 434.27c5.24 2.71 12.25 5.55 15.45 10.04l-.49 1.88-1.88.71c-3.71 1.42-8.23 4.92-11.63 4.94l-2.45-.13c-8.76-.52-25.68 14.85-32.43 11.23l.54-2.12c3.76-2.83 11.55-4.06 16.65-5.31 3.34-12.36 4.61-5.2 13.39-14.03l-4.6-1.25.22-1.59 3.35-.77-.23-1.55-3.68-1.39.45-.68 7.34.03Z" style="fill:#fc9f28"/><path d="M1959.04 2118.77c-13 6.69-37.93 11.81-53.16 11.05-45.98-2.28-113.85 8.56-152.33-18.45-33.64-23.62-29.16-70.55-30.92-102.28-5.38-97.17 36.42-122.76 136.12-117.25 35.42 1.65 79.68-4.19 112.53 20.99 21.55 16.52 25.84 42.14 28.11 66.62.39 37.28 6.97 94.85-20.42 124.7-4.31 5.39-13.35 12.03-19.93 14.62m-172.15-59.12c7.03 10.79 12.89 10.24 17.67 15.73 21.42 5.36 74.12 1.87 98.57 2.38 2.28.05 12.71-2.8 16.1-3.46 26.95-17.74 18.79-47.4 19.79-74.92 1.02-28.31-.22-48.02-35.03-53.27-29.47.02-63.63-1.32-92.55.87-30.12 2.28-30.11 34.39-28.92 55.41.98 17.3-2.9 40.11 4.37 57.26" class="st2"/><path d="M1786.89 2059.65c-1.47-.54-4.01-1.33-4.78-2.5-5.35-8.08-3.39-29.86-3.5-38.9-1.58 6.62-1.04 23.53-1.26 31.56-4.17-7.76-.09-64.54.86-76.4.86-10.82 12.97-28.18 25.07-31.24 12.05 2.95 32.33-2.62 43.34.02 17.72 4.24 42.92-2.37 57.37 3.92-29.47.02-63.63-1.32-92.55.87-30.12 2.28-30.11 34.39-28.92 55.41.98 17.3-2.9 40.11 4.37 57.26m-416.42-166.63 102.79-.33c51.59-.07 117.1-8.84 118.4 57.65.52 26.37-.75 35.27-20.68 55.54 22.12 17.88 24.45 30.06 23.78 56.41-.61 23.94-3.17 38.57-22.56 55.93-9.22 5.35-17.83 9.19-28.75 10.28-29.99 2.5-54.42 1.7-85.36 1.42-13.32-.12-105.99 2.15-112.27-4.2-7.96-8.05-5.93-50.48-5.93-64.86l.03-85.14.03-49.1c0-13.06-3.77-24.66 8.88-32.47 7.21-.47 14.42-.85 21.64-1.13m30.6 140.04c.86 15.76.98 30.99 1.13 46.76l69.47.08c20.2.1 36.89 1.22 56.59-2.65 9.24-9.42 10.22-14.4 9.91-27.22-.64-25.59-47.63-17.77-68.03-17.09-23.02.26-46.05.3-69.07.12m-.05-45.21 71.88-.31c13.5-.05 47.2 2.25 56.48-5.87 4.61-6.6 7.37-15.12 5.27-22.97-1.29-4.8-4.59-8.9-9.42-11.09-9.21-4.19-109.03-1.53-124.12-1.5z" class="st2"/><path d="M1401.11 1946.11c15.09-.03 114.91-2.69 124.12 1.5 4.83 2.19 8.13 6.29 9.42 11.09 2.1 7.85-.66 16.37-5.27 22.97-9.28 8.12-42.98 5.82-56.48 5.87l-71.88.31z" style="fill:#0666bc;fill-opacity:0"/><path d="M703.82 2129.91c.03-28.19-2.73-208.4 2.58-219.28 3.84-7.86 11.13-13.13 19.84-15.89 16.12-5.1 48.82-5.18 64.51 2.1 7.46 3.46 11.14 8.42 15.1 15.01 11.93 19.87 18.96 43.62 27.28 65.02 11.41 29.33 23.65 58.39 33.9 88.09 1.08 3.14 1.96 6.14 5.2 7.7 4.29-3.43 18.5-44.69 22.15-53.67 9.28-21.63 16.34-45.27 25.89-66.68 12.47-27.95 13.81-59.12 53.75-60.34 55.04-1.69 65.87 4.24 65.18 55.28.33 27.15 1.51 66.07-.08 92.31.7 5.88.18 23.08.16 29.74-.18 19.93-.12 39.87.16 59.8l-56.65.28c.17-15.08.93-173.24-1.09-177.09-4.23 2.86-10.28 20.2-12.9 26.16-19.65 44.66-35.02 91.61-56.53 135.39-3.04 5.18-8.16 9.4-13.29 12.29-11.04 6.24-19.98 2.83-31.49 3.92-37.27 3.56-46.49-36.49-58.41-65.84q-14.955-37.11-30.39-74.01c-5.22-12.5-12.06-30.16-18.41-41.83l-.74-1.35c-1.02 17.23-.63 45.16-.56 63 .15 34.89-3.2 85.62.33 119.09-17.63-.25-38.01-.27-55.48.8m-347.97-22.28c-2.25 7.79-13.56 16.42-21.88 17.74-47.81 6.88-100.2 5.51-148.47 3.2-70.21-3.36-84.76-49-84.26-105.21.3-34.11-4.72-90.94 29.69-112.82 43.95-27.94 117.43-14.61 169.03-17.27 12.63-.57 41.08-.47 52.34 1.05 7.27 4.73 6.11 42.24 3.09 49.66-8.22 5.75-137.12.19-160.23 2.51-6.67.68-12.51 3.05-18.78 5.01l-1.35.41c-22.98 21.36-11.56 54.22-13.42 81.67-.6 8.78.99 17.52 3.33 26.01l.34 1.16c2.31 3.3 8.35 11.85 11.84 12.93 28.29 8.81 96.08 7.93 124.33 3.79 1.27-8.11 2.79-34.95 1.68-42.68-9.95-3.78-73.18 1.35-87.41-2.23-6.58-5.3-6.51-36.8-2.35-42.15 23.66-7.96 84.32-1.41 112.68-3.7 7.03-.56 17.07.22 24.3.66 3.97.23 5.06 2.02 7.16 4.67 3.31 11.96 3.24 104.3-1.68 115.59" class="st2"/><path d="M165.3 2060.75c-2.14.1-3.18-.12-5.32-.34-7.16-7.58-15.16-111.21 15.07-108.5-22.98 21.36-11.56 54.22-13.42 81.67-.6 8.78.99 17.52 3.33 26.01zm1908.18-168.83c14.66-.24 32.98-1.59 45.13 6.58 12.98 8.73 27.7 33.86 36.53 46.71 18.59 26.77 36.95 53.68 55.06 80.73 5.1 7.56 27.02 43.06 33 45.03-.99-38.83-1.42-77.67-1.27-116.51-.05-15.76-.97-44.28.81-58.99l.21-1.62c11.22-.11 45.91-1.38 54.12 1.73 4.03 6.27 1.69 43.05 1.52 52.17-.18 19.59-.22 39.17-.11 58.75.01 18.7.19 37.4.55 56.1.47 30.03 8 67.37-36.75 67.34-7.13.07-14.29.2-21.42-.01-8.7-.25-21.01-1.51-27.97-6.67-14.12-10.5-80.96-112.11-96.25-134.88-8.37-12.47-16.41-27.7-27.23-38.39-.45 35.43-.55 70.85-.31 106.28.05 13.69 1.21 60.96-1.84 71.02-7.54 2.99-45.37 1.78-56.24 1.7 1.65-68.68-2.12-138.44.59-207.17.88-22.34 20.26-29.59 41.87-29.9m-903.87 1.06c26.97-.87 54.53.07 81.71-.28 9.25-.13 47.99-1.89 53.35 3.27 6.59 6.36 2.29 29.49 3.58 39.08 2.06 15.22-24.9 11.26-35.17 11.15l-70.22-.33c-13.75-.05-28.84-.89-42.39.98-25.16 3.47-24.6 21.24-24.69 40.08 21.45.26 160.01-1.94 165.6 1.43 3.37 2.03 4.33 7.65 4.57 10.99.62 8.8 2.27 25.42-4.46 32.25-9.03 3.18-146.47 1.8-165.38 1.94-.37 9.14-.58 14.61 1.68 23.53 9.7 37.07 103.07 18.41 133.55 22.54 10.27 1.39 20.69-3.13 32.97.88 9.31 7.45 7.72 39.89 3.02 46.2-3.81 5.12-60.94 3.52-68.86 3.14-49.88-2.37-122.6 12.18-150.88-37.54-16.66-30.5-13.35-66.7-13.3-99.59.1-71.46 19.4-95.47 95.32-99.72m-722.31 85.51c11.96-25.07 24.38-53.32 40.58-75.95 7.55-10.55 26-10.34 37.47-10.75 29.4-1.07 38.64 6.41 50.8 29.71 36.14 69.21 70.28 139.84 108.51 208.06-19.28-.69-43.99-1.04-63.1.21-3.58-6.22-23.76-40-23.87-45.35-1.28-.69-2.57-1.37-3.85-2.06-38.23-.5-97.39-.72-133.54-.11-3.41 1.6-3.19 1.87-5.39 4.87-.22.98-.35 2.28-.87 2.99-3.79 9.79-14.33 30.12-19.69 39.19-20.66-.93-43.43-.46-64.22-.21 7.4-9.75 16.32-29.8 22.35-41.22 18.6-35.24 34.93-74.96 54.83-109.38m34.62 57.35 47.05-.24 42.62.18a3701 3701 0 0 0-31.84-65.57c-2.43-4.9-10.47-21.95-13.37-25.61-13.4 26.29-33.12 64.51-44.47 91.24" class="st2"/><path d="M447.3 1978.49c0 .37.02.74.01 1.11-.07 9.56-22.82 64.71-28.68 75.49-4.31 7.91-9.68 15.57-14.55 23.21l-.86.2-.86-1.96c-3.59 4.45-14.68 35-17.35 42.16 3.47 3.94 7.05 4.64 12.3 4.85 7.67.31 28.12 3.46 33.38-1.68 8.61-8.44 9.69-26.51 23.32-31.76-3.79 9.79-14.33 30.12-19.69 39.19-20.66-.93-43.43-.46-64.22-.21 7.4-9.75 16.32-29.8 22.35-41.22 18.6-35.24 34.93-74.96 54.83-109.38m7.62 108.63c-.18-5.01-.72-6.01 3.47-8.76 17.49-.83 128.33-4.55 136.14-.19 3.03 1.7 2.59 3.21 3.18 6.25-1.28-.69-2.57-1.37-3.85-2.06-38.23-.5-97.39-.72-133.54-.11-3.41 1.6-3.19 1.87-5.39 4.87" class="st2"/><path d="M526.4 1944.6c2.89 3.66 10.94 20.71 13.37 25.61 10.82 21.75 21.44 43.61 31.84 65.57l-42.62-.18-47.05.24c11.35-26.73 31.07-64.95 44.47-91.24" style="fill-opacity:.01;fill:#0666bc"/><path d="m1628.21 1893.76 57.88.06.05 164.21c0 11.15.81 62.95-.76 71.14-17.07-.29-40.69-.58-57.31.4z" class="st2"/></svg>